<svg xmlns="http://www.w3.org/2000/svg" viewBox="0 0 1550 31" width="1550" height="31"><g fill="#000000"><path d="M20 23.41h30v5H20zM0 3.41h50v5H0zM10 13.41h40v5H10z"/></g><path d="M70 23.41h30v5H70zM50 3.41h50v5H50z" fill="#000000"/><path d="M60 13.41h40v5H60z" fill="#000000f6"/><path d="M120 23.41h30v5h-30zM100 3.41h50v5h-50z" fill="#000000"/><path d="M110 13.41h40v5h-40z" fill="#000000d1"/><path d="M170 23.41h30v5h-30zM150 3.41h50v5h-50z" fill="#000000"/><path d="M160 13.41h40v5h-40z" fill="#00000087"/><path d="M220 23.41h30v5h-30zM200 3.41h50v5h-50z" fill="#000000"/><path d="M210 13.41h40v5h-40z" fill="#0000004b"/><path d="M270 23.41h30v5h-30zM250 3.41h50v5h-50z" fill="#000000"/><path d="M260 13.41h40v5h-40z" fill="#00000028"/><path d="M320 23.41h30v5h-30zM300 3.41h50v5h-50z" fill="#000000"/><path d="M310 13.41h40v5h-40z" fill="#00000013"/><path d="M370 23.41h30v5h-30zM350 3.41h50v5h-50z" fill="#000000"/><path d="M360 13.41h40v5h-40z" fill="#00000007"/><path d="M420 23.41h30v5h-30zM400 3.41h50v5h-50z" fill="#000000"/><path d="M410 13.41h40v5h-40z" fill="#00000001"/><path d="M470.001 23.409l29.996.002v4.999l-29.996-.002zM450 3.41h50v5h-50z" fill="#000000"/><path d="M460 13.41h40v5h-40z" fill="#00000000"/><path d="M520.137 23.28l29.619.185-.023 4.944-29.619-.185zM500 3.41h50v5h-50z" fill="#000000"/><path d="M510 13.41h40v5h-40z" fill="#00000000"/><g><path d="M570.545 22.892l28.48.737-.092 4.778-28.48-.738zM550 3.41h50v5h-50z" fill="#000000"/><path d="M560 13.41h40v5h-40z" fill="#00000000"/></g><g><path d="M621.33 22.146l26.293 1.799-.225 4.457-26.293-1.799zM600 3.41h50v5h-50z" fill="#000000"/><path d="M610 13.41h40v5h-40z" fill="#00000000"/></g><g><path d="M672.63 20.91l22.669 3.558-.445 3.926-22.669-3.557zM650.091 3.385l49.843.204-.025 4.99-49.843-.204z" fill="#000000"/><path d="M660 13.41h40v5h-40z" fill="#00000000"/></g><g><path d="M724.575 19.061l17.247 6.189-.773 3.133-17.247-6.189zM700.414 3.298l49.288.928-.116 4.952-49.288-.928z" fill="#000000"/><path d="M710 13.41h40v5h-40z" fill="#00000000"/></g><g><path d="M777.097 16.665l10.218 9.599-1.2 2.104-10.218-9.601zM751.075 3.12l48.151 2.407-.3 4.875-48.152-2.407z" fill="#000000"/><path d="M760 13.41h40v5h-40z" fill="#00000000"/></g><g><path d="M829.768 14.126l2.773 13.213-1.652 1.013-2.773-13.214zM802.212 2.813l46.196 4.954-.619 4.744-46.197-4.955z" fill="#000000"/><path d="M810 13.41h40v5h-40z" fill="#00000000"/></g><g><path d="M882.145 11.867l-3.853 16.428-2.054.042 3.853-16.428z" fill="#000000"/><path d="M853.878 2.363l43.33 8.687-1.086 4.55-43.33-8.687z" fill="#000000"/><path d="M860 13.41h40v5h-40z" fill="#00000000"/></g><g><path d="M934.089 10.019l-9.271 19.057-2.382-.75 9.27-19.058z" fill="#000000"/><path d="M905.773 1.851l40.071 12.933-1.617 4.33-40.071-12.933z" fill="#000000"/><path d="M910 13.41h40v5h-40z" fill="#00000000"/></g><g><path d="M985.639 8.546L972.047 29.7l-2.645-1.383 13.592-21.156z" fill="#000000"/><path d="M957.454 1.397l37.179 16.698-2.087 4.136-37.179-16.699z" fill="#000000"/><path d="M960 13.41h40v5h-40z" fill="#00000000"/></g><g><path d="M1036.874 7.372l-17.034 22.825-2.853-1.888 17.033-22.825z" fill="#000000"/><path d="M1008.778 1.039l34.902 19.664-2.457 3.982-34.903-19.664z" fill="#000000"/><path d="M1010 13.41h40v5h-40z" fill="#00000000"/></g><g><path d="M1087.86 6.435l-19.782 24.158-3.02-2.29 19.782-24.159z" fill="#000000"/><path d="M1059.792.765l33.158 21.936-2.741 3.865L1057.05 4.63z" fill="#000000"/><path d="M1060 13.41h40v5h-40z" fill="#00000000"/></g><g><path d="M1138.648 5.686l-21.979 25.224-3.153-2.611 21.978-25.225z" fill="#000000"/><path d="M1110.57.555l31.82 23.678-2.959 3.774L1107.61 4.33z" fill="#000000"/><path d="M1110 13.41h40v5h-40z" fill="#00000000"/></g><g><path d="M1189.276 5.089l-23.729 26.074-3.26-2.868 23.729-26.075z" fill="#000000"/><path d="M1161.167.394l30.793 25.016-3.126 3.705-30.794-25.016z" fill="#000000"/><path d="M1160 13.41h40v5h-40z" fill="#00000000"/></g><g><path d="M1239.772 4.617l-25.112 26.745-3.344-3.07 25.113-26.746z" fill="#000000"/><path d="M1211.626.27l30.004 26.043-3.255 3.652-30.005-26.043z" fill="#000000"/><path d="M1210 13.41h40v5h-40z" fill="#00000000"/></g><g><path d="M1290.158 4.25l-26.189 27.268-3.409-3.229 26.19-27.268z" fill="#000000"/><path d="M1261.974.176l29.406 26.823-3.353 3.612-29.407-26.823z" fill="#000000"/><path d="M1260 13.41h40v5h-40z" fill="#00000000"/></g><g><path d="M1340.451 3.972l-27.004 27.663-3.459-3.347L1336.993.624z" fill="#000000"/><path d="M1312.232.106l28.962 27.402-3.425 3.581-28.963-27.401z" fill="#000000"/><path d="M1310 13.41h40v5h-40z" fill="#00000000"/></g><g><path d="M1390.663 3.771l-27.595 27.95-3.494-3.435 27.595-27.95z" fill="#000000"/><path d="M1362.416.057l28.645 27.813-3.476 3.56-28.646-27.813z" fill="#000000"/><path d="M1360 13.41h40v5h-40z" fill="#00000000"/></g><g><path d="M1440.805 3.636l-27.991 28.142-3.518-3.492 27.99-28.143z" fill="#000000"/><path d="M1412.537.024l28.437 28.085-3.51 3.546-28.438-28.085z" fill="#000000"/><path d="M1410 13.41h40v5h-40z" fill="#00000000"/></g><g><path d="M1490.885 3.56l-28.214 28.25-3.531-3.525L1487.353.034z" fill="#000000"/><path d="M1462.605.006l28.32 28.236-3.529 3.539-28.321-28.237z" fill="#000000"/><path d="M1460 13.41h40v5h-40z" fill="#00000000"/></g><g><path d="M1540.91 3.536l-28.284 28.284-3.536-3.535L1537.374 0z" fill="#000000"/><path d="M1512.626 0l28.284 28.284-3.535 3.536-28.285-28.284z" fill="#000000"/><path d="M1510 13.41h40v5h-40z" fill="#00000000"/></g></svg>